<?xml version="1.0" encoding="UTF-8"?>
<svg width="107px" height="107px" viewBox="0 0 107 107" version="1.1" xmlns="http://www.w3.org/2000/svg" xmlns:xlink="http://www.w3.org/1999/xlink">
    <!-- Generator: sketchtool 54.1 (76490) - https://sketchapp.com -->
    <title>35D93B74-2306-441D-8803-3532F438AB0F</title>
    <desc>Created with sketchtool.</desc>
    <g id="Page-1" stroke="none" stroke-width="1" fill="none" fill-rule="evenodd">
        <g id="Profile-1280x700-error404" transform="translate(-588.000000, -321.000000)">
            <g id="Group-4" transform="translate(590.000000, 323.000000)">
                <g id="Group-5" transform="translate(0.000000, 0.780000)">
                    <rect id="Mask" stroke="#EA5E68" stroke-width="2" x="-1" y="-1" width="104.2" height="104.2" rx="52.1"></rect>
                    <path d="M83.3005779,70.6078431 C83.8640037,71.0768958 84.0870231,71.5107631 83.9696427,71.9094579 C83.8522624,72.3081527 83.5118643,72.5074971 82.9484385,72.5074971 L25.4088614,72.5074971 C24.8454355,72.5074971 24.2820181,72.5544017 23.7185923,72.6482122 C23.1551664,72.7420228 22.7326034,72.8592842 22.4508905,73 L21.1831886,69.6931949 C21.8405188,69.8339107 22.4156741,69.9277199 22.9086717,69.9746251 C23.4016693,70.0215304 24.0003003,70.0449827 24.7045826,70.0449827 L47.5232154,70.0449827 L47.5232154,51.189158 L34.2123462,51.189158 C33.6489204,51.189158 33.085503,51.2360626 32.5220772,51.3298731 C31.9586513,51.4236837 31.5360883,51.5409451 31.2543753,51.6816609 L29.9866735,48.5155709 C30.6440037,48.6562867 31.2191589,48.7500959 31.7121565,48.7970012 C32.2051542,48.8439064 32.8037851,48.8673587 33.5080675,48.8673587 L63.439916,48.8673587 L65.4823245,44.716263 C65.8109896,44.1533997 66.116174,43.8836985 66.3978869,43.9071511 C66.6795999,43.9306037 67.0552115,44.1299481 67.524733,44.5051903 C68.6515847,45.490201 69.6375651,46.3462094 70.4827039,47.0732411 C71.3278427,47.8002728 72.1494931,48.6328288 72.9476797,49.5709343 C73.3232969,50.039987 73.4641513,50.4269496 73.370247,50.7318339 C73.2763426,51.0367182 72.9476825,51.189158 72.3842566,51.189158 L54.0730081,51.189158 L54.0730081,70.0449827 L73.2293912,70.0449827 L75.3422276,65.7531719 C75.6708926,65.0964981 75.9995528,64.7681661 76.3282179,64.7681661 C76.6568829,64.7681661 77.1263974,65.0261412 77.7367755,65.5420992 C78.6758185,66.2925835 79.6383233,67.160318 80.6243185,68.1453287 C81.6103137,69.1303394 82.5023913,69.9511693 83.3005779,70.6078431 Z M55.6928493,19.3875433 C55.5519929,20.4663645 55.0824784,21.3458251 54.2842918,22.0259516 C53.4861051,22.706078 52.5940276,23.0461361 51.6080324,23.0461361 C51.0915587,23.0461361 50.5868306,22.8936963 50.093833,22.588812 C49.6008353,22.2839277 49.2839131,21.8031559 49.1430566,21.1464821 C48.7674394,19.5047976 48.1335948,18.0624822 47.2415039,16.8194925 C46.3494129,15.5765028 45.0817238,14.3452579 43.4383984,13.1257209 L44.0018214,12 C46.6780942,12.515958 48.8143852,13.0201821 50.4107584,13.5126874 C52.0071316,14.0051928 53.2161315,14.5328692 54.0377942,15.0957324 C54.8594569,15.6585957 55.3759228,16.2918073 55.5872075,16.9953864 C55.7984922,17.6989655 55.8337058,18.4963431 55.6928493,19.3875433 Z M54.9885705,35.2179931 L54.9885705,27.9711649 C54.9885705,27.3613964 54.9416191,26.6812802 54.8477148,25.9307958 L42.3115523,25.9307958 C43.3444997,26.4936591 44.3304802,27.0096093 45.2695232,27.4786621 C46.2085663,27.9477148 47.0536924,28.4167604 47.8049269,28.8858131 C48.5561614,29.4017711 48.8496079,29.8239122 48.6852754,30.1522491 C48.5209428,30.480586 47.9692633,30.6682043 47.0302202,30.7151096 C46.3728901,30.7620148 45.692094,31.1137991 44.9878117,31.7704729 C44.2835294,32.4271467 43.4853548,33.3183335 42.5932638,34.44406 C40.1517518,37.5398079 37.5459464,40.2016421 34.7757693,42.4296424 C32.0055922,44.6576428 28.6250878,46.5924562 24.6341547,48.2341407 L23.6481644,46.7566321 C27.6390975,44.2237474 31.1135048,41.1632244 34.0714905,37.5749712 C37.0294762,33.9867179 39.3300972,30.105365 40.9734226,25.9307958 L30.3388129,25.9307958 C30.2449086,27.1503329 30.1510057,28.1705072 30.0571014,28.9913495 C29.9631971,29.8121917 29.798867,30.5392125 29.5641062,31.1724337 C29.3293455,31.8056548 28.9537339,32.3802358 28.4372602,32.8961938 C27.9207865,33.4121518 27.2165147,33.9515543 26.3244238,34.5144175 C25.3384286,35.1241861 24.2350695,35.3821612 23.0143135,35.2883506 C21.7935575,35.1945401 20.9014799,34.7254944 20.3380541,33.8811995 C20.0563412,33.4121468 19.9507004,32.8258397 20.0211286,32.1222607 C20.0915569,31.4186816 20.5258578,30.7385654 21.3240444,30.0818916 C22.3569918,29.284502 23.2490693,28.545755 24.0003038,27.8656286 C24.7515383,27.1855022 25.3971207,26.4467552 25.9370705,25.6493656 C26.4770202,24.851976 26.9465347,23.9490631 27.345628,22.9405998 C27.7447214,21.9321364 28.1320708,20.7008915 28.5076881,19.2468281 L29.9866735,19.2468281 C30.1744821,20.3256494 30.2566472,21.1933839 30.2331711,21.8500577 C30.209695,22.5067315 30.2449086,23.1868477 30.3388129,23.8904268 L72.6659682,23.8904268 L74.5675209,20.5132641 C74.8022817,20.138022 75.0253011,19.9386775 75.2365857,19.9152249 C75.4478704,19.8917723 75.8117442,20.0442121 76.3282179,20.372549 C77.5489739,21.1699386 78.6875465,21.9321378 79.74397,22.6591696 C80.8003935,23.3862013 81.868539,24.2187573 82.9484385,25.1568627 C83.3710079,25.5321049 83.5236001,25.9073415 83.4062197,26.2825836 C83.2888393,26.6578258 82.8780141,26.7985395 82.1737318,26.704729 C81.5164017,26.6578237 80.9060328,26.7047282 80.342607,26.8454441 C79.7791811,26.9861599 79.0866472,27.3144918 78.2649845,27.8304498 C77.4433218,28.3464078 76.4338657,29.1203332 75.2365857,30.1522491 C74.0393058,31.1841651 72.5016458,32.5678498 70.6235597,34.3033449 L69.0037185,33.3886967 C69.5201922,32.6382123 69.9310173,31.9932745 70.2362063,31.4538639 C70.5413953,30.9144533 70.823104,30.3867769 71.0813409,29.8708189 C71.3395777,29.3548609 71.6095486,28.7920061 71.8912615,28.1822376 C72.1729744,27.5724691 72.548586,26.821996 73.0181076,25.9307958 L58.4395366,25.9307958 L60.9749403,26.7750865 C62.6652178,27.384855 63.4868682,27.9008053 63.439916,28.3229527 C63.3929639,28.7451001 62.4774106,29.4721209 60.6932287,30.5040369 L60.6932287,34.3737024 C60.6932287,35.4525237 60.9631996,36.2381752 61.5031493,36.7306805 C62.0430991,37.2231859 63.2990504,37.4694348 65.2710409,37.4694348 C66.6326533,37.4694348 67.7829639,37.4459825 68.7220069,37.3990773 C69.66105,37.352172 70.4592247,37.270089 71.1165548,37.1528258 C71.773885,37.0355627 72.3020888,36.8831228 72.7011821,36.6955017 C73.1002754,36.5078806 73.4641491,36.2733578 73.7928142,35.9919262 C74.1214793,35.7104946 74.3914501,35.5463286 74.6027348,35.4994233 C74.8140195,35.452518 75.1074661,35.616684 75.4830833,35.9919262 C76.2812699,36.7893158 76.9151145,37.5163366 77.3846361,38.1730104 C77.8541576,38.8296842 78.2297692,39.4159913 78.5114821,39.9319493 C78.8870994,40.588623 78.9810023,41.081121 78.7931936,41.4094579 C78.605385,41.7377948 77.9011133,41.9488654 76.6803573,42.0426759 C74.2857974,42.230297 71.8912735,42.3358323 69.4967136,42.3592849 C67.1021538,42.3827375 64.4259211,42.3241068 61.4679354,42.183391 C59.8715622,42.1364857 58.6390866,42.0074982 57.7704718,41.7964245 C56.9018569,41.5853507 56.2562745,41.2218403 55.8337051,40.7058824 C55.4111357,40.1899244 55.1646406,39.4863559 55.0942124,38.5951557 C55.0237841,37.7039556 54.9885705,36.5782459 54.9885705,35.2179931 Z" id="空" fill="#EA5E68" fill-rule="nonzero"></path>
                    <path d="M31.2866211,90 L31.2866211,81.9042969 L35.7397461,81.9042969 L35.7397461,90 L34.6069336,90 L34.6069336,82.7099609 L32.4145508,82.7099609 L32.4145508,90 L31.2866211,90 Z M38.4018555,91.2255859 L38.4018555,90.3564453 C38.8543317,90.4020185 39.1798493,90.388184 39.378418,90.3149414 C39.5769867,90.2416989 39.6876626,90.1033539 39.7104492,89.8999023 C39.7332358,89.6964508 39.7153323,89.4287126 39.6567383,89.0966797 L38.0600586,81.9042969 L39.1293945,81.9042969 L39.8129883,85.3515625 L40.2231445,87.9150391 L40.5795898,85.3662109 L41.1899414,81.9042969 L42.2739258,81.9042969 L40.8237305,89.1162109 C40.8009439,89.2268886 40.7716473,89.3798818 40.7358398,89.5751953 C40.6642249,89.9755879 40.6031904,90.2563469 40.5527344,90.4174805 C40.5022784,90.5786141 40.3981128,90.7438143 40.2402344,90.9130859 C40.082356,91.0823576 39.8618178,91.1840819 39.5786133,91.2182617 C39.2954087,91.2524416 38.9031601,91.254883 38.4018555,91.2255859 Z M46.5424805,90.0878906 C46.2071923,90.0878906 45.9125989,90.0423182 45.6586914,89.9511719 C45.4047839,89.8600256 45.1972664,89.7363289 45.0361328,89.5800781 C44.8749992,89.4238273 44.7431646,89.2293306 44.640625,88.996582 C44.5380854,88.7638335 44.4672854,88.5188815 44.4282227,88.2617188 C44.38916,88.004556 44.3696289,87.7164729 44.3696289,87.3974609 L44.3696289,84.5361328 C44.3696289,84.1943342 44.3899738,83.8899753 44.4306641,83.6230469 C44.4713544,83.3561185 44.5421544,83.1070975 44.6430664,82.8759766 C44.7439784,82.6448556 44.875813,82.4544278 45.0385742,82.3046875 C45.2013354,82.1549472 45.4088529,82.0377608 45.6611328,81.953125 C45.9134127,81.8684892 46.2071923,81.8261719 46.5424805,81.8261719 C47.2716508,81.8261719 47.7941065,82.02311 48.1098633,82.4169922 C48.4256201,82.8108744 48.5834961,83.3902957 48.5834961,84.1552734 L48.5834961,84.7998047 L47.5141602,84.7998047 L47.5141602,84.2285156 C47.5141602,84.1048171 47.5133464,84.0079756 47.5117188,83.9379883 C47.5100911,83.868001 47.506836,83.780925 47.5019531,83.6767578 C47.4970703,83.5725906 47.4881186,83.4912112 47.4750977,83.4326172 C47.4620768,83.3740231 47.4449871,83.3056645 47.4238281,83.2275391 C47.4026692,83.1494137 47.375814,83.0883791 47.3432617,83.0444336 C47.3107095,83.0004881 47.2700198,82.953288 47.2211914,82.902832 C47.172363,82.852376 47.117025,82.8149415 47.0551758,82.7905273 C46.9933265,82.7661132 46.9200851,82.7457683 46.8354492,82.7294922 C46.7508134,82.7132161 46.6564133,82.7050781 46.5522461,82.7050781 C46.3959953,82.7050781 46.2592779,82.7221678 46.1420898,82.7563477 C46.0249018,82.7905275 45.9288741,82.8442379 45.8540039,82.9174805 C45.7791337,82.990723 45.7180992,83.0712886 45.6708984,83.1591797 C45.6236977,83.2470708 45.5887045,83.3601881 45.565918,83.4985352 C45.5431314,83.6368822 45.5276693,83.7703444 45.5195312,83.8989258 C45.5113932,84.0275072 45.5073242,84.186197 45.5073242,84.375 L45.5073242,87.578125 C45.5073242,88.186852 45.5838208,88.6100249 45.7368164,88.8476562 C45.889812,89.0852876 46.1616191,89.2041016 46.5522461,89.2041016 C46.7019864,89.2041016 46.8313797,89.1878257 46.9404297,89.1552734 C47.0494797,89.1227212 47.138997,89.0690108 47.2089844,88.9941406 C47.2789717,88.9192705 47.3351235,88.8411462 47.3774414,88.7597656 C47.4197593,88.678385 47.4506835,88.5685228 47.4702148,88.4301758 C47.4897462,88.2918287 47.5019531,88.1640631 47.5068359,88.046875 C47.5117188,87.9296869 47.5141602,87.7766937 47.5141602,87.5878906 L47.5141602,86.9921875 L48.5834961,86.9921875 L48.5834961,87.5927734 C48.5834961,87.9020198 48.563965,88.1787097 48.5249023,88.4228516 C48.4858396,88.6669934 48.4191085,88.8956695 48.324707,89.1088867 C48.2303055,89.3221039 48.1066088,89.4986972 47.9536133,89.6386719 C47.8006177,89.7786465 47.6053072,89.8885087 47.3676758,89.9682617 C47.1300444,90.0480147 46.854982,90.0878906 46.5424805,90.0878906 Z M51.9975586,90 L51.9975586,82.7392578 L50.5180664,82.7392578 L50.5180664,81.9042969 L54.5512695,81.9042969 L54.5512695,82.7392578 L53.1254883,82.7392578 L53.1254883,90 L51.9975586,90 Z M58.7319336,90.0878906 C58.3282857,90.0878906 57.9824233,90.0276699 57.6943359,89.9072266 C57.4062486,89.7867833 57.1775725,89.6093762 57.0083008,89.375 C56.8390291,89.1406238 56.7153324,88.8671891 56.637207,88.5546875 C56.5590816,88.2421859 56.5200195,87.8776062 56.5200195,87.4609375 L56.5200195,84.3945312 C56.5200195,83.5514281 56.6917301,82.9125998 57.0351562,82.4780273 C57.3785824,82.0434549 57.9441692,81.8261719 58.7319336,81.8261719 C59.5164427,81.8261719 60.0812157,82.0450824 60.4262695,82.4829102 C60.7713233,82.9207379 60.9438477,83.5579385 60.9438477,84.3945312 L60.9438477,87.4658203 C60.9438477,88.3089235 60.7705095,88.9567035 60.4238281,89.4091797 C60.0771467,89.8616559 59.5131875,90.0878906 58.7319336,90.0878906 Z M58.1801758,89.1015625 C58.3266609,89.1699222 58.5105783,89.2041016 58.7319336,89.2041016 C58.9532889,89.2041016 59.1363925,89.1699222 59.28125,89.1015625 C59.4261075,89.0332028 59.5359697,88.9290372 59.6108398,88.7890625 C59.68571,88.6490878 59.736979,88.4952808 59.7646484,88.3276367 C59.7923178,88.1599927 59.8061523,87.9524752 59.8061523,87.7050781 L59.8061523,84.1601562 C59.8061523,83.9160144 59.7923178,83.7125659 59.7646484,83.5498047 C59.736979,83.3870435 59.68571,83.2373054 59.6108398,83.1005859 C59.5359697,82.9638665 59.4261075,82.8637698 59.28125,82.800293 C59.1363925,82.7368161 58.9532889,82.7050781 58.7319336,82.7050781 C58.5105783,82.7050781 58.3274747,82.7368161 58.1826172,82.800293 C58.0377597,82.8637698 57.9278975,82.9638665 57.8530273,83.1005859 C57.7781572,83.2373054 57.7268882,83.3870435 57.6992188,83.5498047 C57.6715493,83.7125659 57.6577148,83.9160144 57.6577148,84.1601562 L57.6577148,87.7050781 C57.6577148,87.9524752 57.6715493,88.1599927 57.6992188,88.3276367 C57.7268882,88.4952808 57.7781572,88.6490878 57.8530273,88.7890625 C57.9278975,88.9290372 58.0369459,89.0332028 58.1801758,89.1015625 Z M64.3920898,90 L64.3920898,82.7392578 L62.9125977,82.7392578 L62.9125977,81.9042969 L66.9458008,81.9042969 L66.9458008,82.7392578 L65.5200195,82.7392578 L65.5200195,90 L64.3920898,90 Z M70.2182617,87.1533203 L71.5708008,87.1533203 L70.8920898,83.4960938 L70.2182617,87.1533203 Z M68.6166992,90 L70.3452148,81.9042969 L71.434082,81.9042969 L73.1625977,90 L72.0883789,90 L71.7172852,87.9589844 L70.0717773,87.9589844 L69.6860352,90 L68.6166992,90 Z" id="ПУСТОТА" fill="#CCCCCC" fill-rule="nonzero"></path>
                </g>
            </g>
        </g>
    </g>
</svg>