<svg class="additionalDt" width="20px" height="20px" viewBox="0 0 20 20" version="1.1" xmlns="http://www.w3.org/2000/svg" xmlns:xlink="http://www.w3.org/1999/xlink">
	<g id="Page-1" stroke="none" stroke-width="1" fill="none" fill-rule="evenodd">
	<g id="Qi-Men-1280x700-Primer" transform="translate(-1198.000000, -340.000000)" fill="#4a4a4a">
	<g id="Group-7" transform="translate(878.000000, 340.000000)">
	<g id="Group" transform="translate(320.000000, 0.000000)">
		<path d="M18,20 L2,20 C0.897333333,20 0,19.1026667 0,18 L0,3.33333333 C0,2.23066667 0.748,1.33333333 1.66666667,1.33333333 L2.66666667,1.33333333 L2.66666667,2.66666667 L1.66666667,2.66666667 C1.552,2.66666667 1.33333333,2.92666667 1.33333333,3.33333333 L1.33333333,18 C1.33333333,18.3673333 1.63266667,18.6666667 2,18.6666667 L18,18.6666667 C18.3673333,18.6666667 18.6666667,18.3673333 18.6666667,18 L18.6666667,3.33333333 C18.6666667,2.92666667 18.448,2.66666667 18.3333333,2.66666667 L17.3333333,2.66666667 L17.3333333,1.33333333 L18.3333333,1.33333333 C19.252,1.33333333 20,2.23066667 20,3.33333333 L20,18 C20,19.1026667 19.1026667,20 18,20" id="Fill-133"></path>
		<path d="M4.66666667,4 C4.29866667,4 4,3.70133333 4,3.33333333 L4,0.666666667 C4,0.298666667 4.29866667,0 4.66666667,0 C5.03466667,0 5.33333333,0.298666667 5.33333333,0.666666667 L5.33333333,3.33333333 C5.33333333,3.70133333 5.03466667,4 4.66666667,4" id="Fill-134"></path>
		<path d="M15.3333333,4 C14.9653333,4 14.6666667,3.70133333 14.6666667,3.33333333 L14.6666667,0.666666667 C14.6666667,0.298666667 14.9653333,0 15.3333333,0 C15.7013333,0 16,0.298666667 16,0.666666667 L16,3.33333333 C16,3.70133333 15.7013333,4 15.3333333,4" id="Fill-135"></path>
		<polygon id="Fill-136" points="6.66666667 1.33333333 13.3333333 1.33333333 13.3333333 2.66666667 6.66666667 2.66666667"></polygon>
		<polygon id="Fill-137" points="1.33333333 5.33333333 18.6666667 5.33333333 18.6666667 6.66666667 1.33333333 6.66666667"></polygon>
		<polygon id="Fill-138" points="16 8 17.3333333 8 17.3333333 9.33333333 16 9.33333333"></polygon>
		<polygon id="Fill-139" points="13.3333333 8 14.6666667 8 14.6666667 9.33333333 13.3333333 9.33333333"></polygon>
		<polygon id="Fill-140" points="10.6666667 8 12 8 12 9.33333333 10.6666667 9.33333333"></polygon>
		<polygon id="Fill-141" points="8 8 9.33333333 8 9.33333333 9.33333333 8 9.33333333"></polygon>
		<polygon id="Fill-142" points="5.33333333 8 6.66666667 8 6.66666667 9.33333333 5.33333333 9.33333333"></polygon>
		<polygon id="Fill-143" points="16 10.6666667 17.3333333 10.6666667 17.3333333 12 16 12"></polygon>
		<polygon id="Fill-144" points="13.3333333 10.6666667 14.6666667 10.6666667 14.6666667 12 13.3333333 12"></polygon>
		<polygon id="Fill-145" points="10.6666667 10.6666667 12 10.6666667 12 12 10.6666667 12"></polygon>
		<polygon id="Fill-146" points="8 10.6666667 9.33333333 10.6666667 9.33333333 12 8 12"></polygon>
		<polygon id="Fill-147" points="5.33333333 10.6666667 6.66666667 10.6666667 6.66666667 12 5.33333333 12"></polygon>
		<polygon id="Fill-148" points="2.66666667 10.6666667 4 10.6666667 4 12 2.66666667 12"></polygon>
		<polygon id="Fill-149" points="16 13.3333333 17.3333333 13.3333333 17.3333333 14.6666667 16 14.6666667"></polygon>
		<polygon id="Fill-150" points="13.3333333 13.3333333 14.6666667 13.3333333 14.6666667 14.6666667 13.3333333 14.6666667"></polygon>
		<polygon id="Fill-151" points="10.6666667 13.3333333 12 13.3333333 12 14.6666667 10.6666667 14.6666667"></polygon>
		<polygon id="Fill-152" points="8 13.3333333 9.33333333 13.3333333 9.33333333 14.6666667 8 14.6666667"></polygon>
		<polygon id="Fill-153" points="5.33333333 13.3333333 6.66666667 13.3333333 6.66666667 14.6666667 5.33333333 14.6666667"></polygon>
		<polygon id="Fill-154" points="2.66666667 13.3333333 4 13.3333333 4 14.6666667 2.66666667 14.6666667"></polygon>
		<polygon id="Fill-155" points="13.3333333 16 14.6666667 16 14.6666667 17.3333333 13.3333333 17.3333333"></polygon>
		<polygon id="Fill-156" points="10.6666667 16 12 16 12 17.3333333 10.6666667 17.3333333"></polygon>
		<polygon id="Fill-157" points="8 16 9.33333333 16 9.33333333 17.3333333 8 17.3333333"></polygon>
		<polygon id="Fill-158" points="5.33333333 16 6.66666667 16 6.66666667 17.3333333 5.33333333 17.3333333"></polygon>
		<polygon id="Fill-159" points="2.66666667 16 4 16 4 17.3333333 2.66666667 17.3333333"></polygon>
	</g>
	</g>
	</g>
	</g>
</svg>