<svg xmlns="http://www.w3.org/2000/svg" xmlns:xlink="http://www.w3.org/1999/xlink" width="16" height="16" viewBox="0 0 16 16">
    <defs>
        <path id="a" d="M0 0h12.407v16H0z"/>
        <path id="c" d="M.01.02h12.739v10.915H.009z"/>
    </defs>
    <g fill="none" fill-rule="evenodd">
        <g>
            <mask id="b" fill="#fff">
                <use xlink:href="#a"/>
            </mask>
            <path fill="#000" d="M3.048 3.224H1.1l2.083-2.11v1.975c0 .075-.06.135-.134.135zM3.504 0a.318.318 0 0 0-.228.096L.094 3.32A.33.33 0 0 0 0 3.55v11.662c0 .434.349.788.778.788H11.63a.784.784 0 0 0 .777-.788V9.269a.326.326 0 0 0-.322-.326.324.324 0 0 0-.322.326v5.943c0 .075-.06.136-.133.136H.778a.135.135 0 0 1-.134-.136V3.877h2.404a.784.784 0 0 0 .778-.788V.652h7.804c.073 0 .133.061.133.136v1.228c0 .18.145.327.322.327a.324.324 0 0 0 .322-.327V.788A.784.784 0 0 0 11.63 0H3.504z" mask="url(#b)"/>
        </g>
        <g transform="translate(2.61 2.3)">
            <mask id="d" fill="#fff">
                <use xlink:href="#c"/>
            </mask>
            <path fill="#000" d="M11.404 2.691l-1.292-1.308.528-.535a.586.586 0 0 1 .84 0l.452.458a.601.601 0 0 1 .173.425c0 .161-.061.312-.173.425l-.528.535zM4.718 9.467L3.426 8.158l6.231-6.314 1.292 1.309-6.231 6.314zm-1.956.673l.371-1.355.967.979-1.338.376zm-2.43.143a.324.324 0 0 0-.323.326c0 .18.145.326.322.326h1.965l.086-.011 2.422-.681a.321.321 0 0 0 .141-.084l7.442-7.541a1.267 1.267 0 0 0 0-1.774l-.452-.458a1.228 1.228 0 0 0-1.75 0L6.579 4.04H.331a.324.324 0 0 0-.322.327c0 .18.145.326.322.326h5.604L3.5 7.16H.331a.324.324 0 0 0-.322.327c0 .18.145.326.322.326h2.524l-.112.114a.328.328 0 0 0-.082.143l-.606 2.212H.33z" mask="url(#d)"/>
        </g>
    </g>
</svg>
